# xmcd CD database file
#
# Track frame offsets:
#	151
#	31359
#	55111
#	92904
#	131174
#	152258
#	213508
#	225545
#	245568
#	273787
#	294480
#	302577
#	317272
#
# Disc length: 4653 seconds
#
# Revision: 0
# Processed by: cddbd v1.5.1PL2 Copyright (c) Steve Scherf et al.
# Submitted via: CDex 1.50
#
DISCID=a8122b0d
DTITLE=Guillermo Cazenave - Vivo Vien
DYEAR=2002
DGENRE=New Age
TTITLE0=La Balinesca
TTITLE1=Vuela Bien
TTITLE2=No Bajes al Ruedo
TTITLE3=Acción
TTITLE4=El Lince
TTITLE5=Vuela Dentro
TTITLE6=Del Tibet a Europa
TTITLE7=Como un niño
TTITLE8=Navajos
TTITLE9=Aqua
TTITLE10=Sueños
TTITLE11=La Ardilla
TTITLE12=Lawrence (de Arabia)
EXTD=YEAR: 2002
EXTT0=
EXTT1=
EXTT2=
EXTT3=
EXTT4=
EXTT5=
EXTT6=
EXTT7=
EXTT8=
EXTT9=
EXTT10=
EXTT11=
EXTT12=
PLAYORDER=
